Coordinates
version=1
nRows=11
nColumns=40
inDegrees=yes

Units are S.I. units (second, meters, Newtons, ...)
If the header above contains a line with 'inDegrees', this indicates whether rotational values are in degrees (yes) or radians (no).

endheader
time	pelvis_tilt	pelvis_list	pelvis_rotation	pelvis_tx	pelvis_ty	pelvis_tz	hip_flexion_r	hip_adduction_r	hip_rotation_r	knee_angle_r	knee_angle_r_beta	ankle_angle_r	subtalar_angle_r	mtp_angle_r	hip_flexion_l	hip_adduction_l	hip_rotation_l	knee_angle_l	knee_angle_l_beta	ankle_angle_l	subtalar_angle_l	mtp_angle_l	lumbar_extension	lumbar_bending	lumbar_rotation	arm_flex_r	arm_add_r	arm_rot_r	elbow_flex_r	pro_sup_r	wrist_flex_r	wrist_dev_r	arm_flex_l	arm_add_l	arm_rot_l	elbow_flex_l	pro_sup_l	wrist_flex_l	wrist_dev_l
      6.30000000	     40.71118102	     -1.16016975	   -175.73242514	      0.42265001	      0.64043603	     -0.59968339	    102.46162026	    -15.43465249	      7.70857563	     72.00166097	      1.25666605	     15.99496485	      0.00000000	      0.00000000	    100.99325601	    -12.09208323	      0.04033946	     70.62357766	      1.23261396	     13.12131318	      0.00000000	      0.00000000	    -35.33547002	     -5.12097668	     -5.52128020	     68.52530762	    -11.77081961	     84.29449281	      8.78594625	     81.24421748	      0.00000000	      0.00000000	     65.09603971	     -6.19751464	      9.15266119	     14.06276139	     17.59677244	      0.00000000	      0.00000000
      6.30500000	     40.66656155	     -1.13245082	   -175.70006546	      0.42244396	      0.63974330	     -0.59976286	    102.52694849	    -15.47299291	      7.70464561	     72.22663290	      1.26059255	     16.09017254	      0.00000000	      0.00000000	    101.03887520	    -12.05851707	      0.14563711	     70.73700976	      1.23459372	     13.17631666	      0.00000000	      0.00000000	    -35.26314389	     -5.10500990	     -5.42931034	     68.30439020	    -11.92339674	     83.93345856	      8.88027072	     80.54883218	      0.00000000	      0.00000000	     65.04473381	     -6.18925729	      9.32256893	     14.03631094	     18.46114131	      0.00000000	      0.00000000
      6.31000000	     40.52567967	     -0.96078058	   -175.65902478	      0.42211736	      0.63905597	     -0.59947830	    102.46356351	    -15.61849474	      7.47909494	     72.49118737	      1.26520990	     16.43497716	      0.00000000	      0.00000000	    101.11646393	    -11.97161277	      0.40967544	     71.03918354	      1.23986765	     13.51518980	      0.00000000	      0.00000000	    -35.24779256	     -4.85422092	     -5.57212974	     68.20439920	    -11.86608050	     83.11420158	      9.28192901	     79.58213372	      0.00000000	      0.00000000	     64.68734146	     -6.42743921	      9.45075440	     14.16285586	     19.39222020	      0.00000000	      0.00000000
      6.31500000	     40.50203536	     -0.97193887	   -175.61326983	      0.42189116	      0.63820830	     -0.59936403	    102.56907675	    -15.66595228	      7.56815051	     72.72130780	      1.26922626	     16.64423454	      0.00000000	      0.00000000	    101.20470760	    -11.90106461	      0.47425126	     71.24365965	      1.24343643	     13.65510872	      0.00000000	      0.00000000	    -35.13585718	     -4.84648312	     -5.51885374	     67.95807419	    -11.93268866	     82.66463112	      9.23493088	     78.85231102	      0.00000000	      0.00000000	     64.58287160	     -6.36094936	      9.63246544	     14.06460863	     20.21086404	      0.00000000	      0.00000000
      6.32000000	     40.24696553	     -1.20320659	   -175.97161766	      0.42144460	      0.63813344	     -0.60009417	    102.37715527	    -15.22582551	      7.79307308	     72.77911202	      1.27023513	     16.42587445	      0.00000000	      0.00000000	    100.94203310	    -12.36827898	      0.26662384	     71.43702813	      1.24681135	     13.62235694	      0.00000000	      0.00000000	    -35.34820898	     -5.26586638	     -5.34472581	     68.19630363	    -11.84539982	     84.69761539	      9.02366152	     80.26121085	      0.00000000	      0.00000000	     64.61368128	     -6.32791116	      9.23104247	     14.04261276	     20.33276966	      0.00000000	      0.00000000
      6.32500000	     40.10676015	     -1.10043574	   -175.87388913	      0.42121404	      0.63764037	     -0.59975790	    102.31082449	    -15.38365638	      7.70634246	     72.97481351	      1.27365077	     16.52898405	      0.00000000	      0.00000000	    100.93300545	    -12.20235142	      0.45480983	     71.61643432	      1.24994258	     13.71350028	      0.00000000	      0.00000000	    -35.38334561	     -5.08566755	     -5.33331016	     68.16692133	    -11.93579029	     84.77608655	      9.09519446	     80.79903750	      0.00000000	      0.00000000	     64.55545354	     -6.25696271	      9.03746770	     13.95713275	     20.92775474	      0.00000000	      0.00000000
      6.33000000	     40.06931466	     -1.16113211	   -175.96797146	      0.42090547	      0.63691292	     -0.60000770	    102.39874582	    -15.28650610	      7.77099365	     73.18697890	      1.27735375	     16.59398335	      0.00000000	      0.00000000	    100.99012611	    -12.33437561	      0.44547404	     71.84478877	      1.25392811	     13.82757733	      0.00000000	      0.00000000	    -35.29785078	     -5.20741104	     -5.29743705	     68.04650136	    -11.88927789	     84.73305218	      9.07613845	     80.62551515	      0.00000000	      0.00000000	     64.45359819	     -6.28894261	      8.98170597	     13.85477714	     22.04010999	      0.00000000	      0.00000000
      6.33500000	     39.90028564	     -1.09635253	   -176.00968783	      0.42059979	      0.63663223	     -0.59989081	    102.25578037	    -15.27891029	      7.70117314	     73.31543266	      1.27959569	     16.66869012	      0.00000000	      0.00000000	    100.92509321	    -12.33851027	      0.58369958	     72.02337229	      1.25704498	     13.96934560	      0.00000000	      0.00000000	    -35.37909147	     -5.13210943	     -5.24704252	     68.01463670	    -11.84377150	     84.36512257	      8.99924355	     81.62495579	      0.00000000	      0.00000000	     64.52253822	     -6.09237302	      7.77027300	     13.88298888	     18.97437450	      0.00000000	      0.00000000
      6.34000000	     39.77042687	     -1.14430246	   -176.02502408	      0.42033068	      0.63618429	     -0.59990781	    102.22729791	    -15.28458232	      7.73805130	     73.50640835	      1.28292885	     16.80252428	      0.00000000	      0.00000000	    100.86926791	    -12.34961079	      0.59089617	     72.20409775	      1.26019924	     14.04299052	      0.00000000	      0.00000000	    -35.42159645	     -5.17502308	     -5.22013872	     67.94323296	    -11.90801016	     84.64878797	      9.07466480	     80.79088830	      0.00000000	      0.00000000	     64.37771970	     -6.19613351	      8.49712905	     13.88942548	     20.77718774	      0.00000000	      0.00000000
      6.34500000	     39.58605057	     -1.10340401	   -176.12184329	      0.42009997	      0.63603755	     -0.59993254	    102.06107598	    -15.20022020	      7.69097278	     73.59299861	      1.28444013	     16.84689452	      0.00000000	      0.00000000	    100.76798070	    -12.42093139	      0.71031223	     72.36110094	      1.26293946	     14.17150454	      0.00000000	      0.00000000	    -35.54223769	     -5.16875426	     -5.12995100	     67.93441779	    -11.90522067	     84.73629842	      9.07907936	     80.60590554	      0.00000000	      0.00000000	     64.28459386	     -6.28045838	      8.89586668	     13.90759044	     21.87569551	      0.00000000	      0.00000000
      6.35000000	     39.50779792	     -1.11386812	   -176.29815633	      0.41991277	      0.63564162	     -0.60014040	    102.02225922	    -15.00170517	      7.71796958	     73.67746872	      1.28591441	     16.92316452	      0.00000000	      0.00000000	    100.78065073	    -12.59590938	      0.77937633	     72.54635747	      1.26617280	     14.27282916	      0.00000000	      0.00000000	    -35.52981395	     -5.26782012	     -5.01174256	     67.86982632	    -11.85243705	     84.76180818	      9.02679697	     80.12512283	      0.00000000	      0.00000000	     64.13776880	     -6.38914513	      9.23102094	     13.97079577	     22.99161058	      0.00000000	      0.00000000
